<svg viewBox="0 0 500 500" xmlns="http://www.w3.org/2000/svg" width="200px" height="200px" role="img" aria-label="[title + description]">
 <title>Chris Lane Jones Logo</title>
  <desc>This is the site logo.</desc>
  <path d="M 164.04 97.356 L 158.441 97.356 Q 158.288 96.27 157.815 95.42 Q 157.342 94.569 156.6 93.969 Q 155.859 93.368 154.893 93.048 Q 153.928 92.729 152.803 92.729 Q 150.771 92.729 149.262 93.732 Q 147.754 94.736 146.923 96.647 Q 146.092 98.558 146.092 101.281 Q 146.092 104.081 146.929 105.986 Q 147.766 107.89 149.275 108.862 Q 150.783 109.834 152.765 109.834 Q 153.877 109.834 154.829 109.54 Q 155.782 109.246 156.523 108.677 Q 157.265 108.108 157.757 107.29 Q 158.249 106.471 158.441 105.423 L 164.04 105.449 Q 163.823 107.251 162.96 108.92 Q 162.097 110.588 160.646 111.898 Q 159.195 113.209 157.195 113.969 Q 155.194 114.73 152.675 114.73 Q 149.173 114.73 146.418 113.145 Q 143.663 111.56 142.071 108.555 Q 140.479 105.551 140.479 101.281 Q 140.479 96.998 142.09 93.994 Q 143.701 90.99 146.462 89.411 Q 149.224 87.832 152.675 87.832 Q 154.951 87.832 156.901 88.471 Q 158.85 89.111 160.359 90.332 Q 161.867 91.552 162.82 93.317 Q 163.772 95.081 164.04 97.356 Z" transform="matrix(3.52372, 0, 0, 3.52372, -461.285095, -248.087875)" style="fill: rgb(255, 255, 255);"></path>
  <path d="M 173.855 103.02 L 173.855 114.372 L 168.409 114.372 L 168.409 88.19 L 173.702 88.19 L 173.702 98.2 L 173.932 98.2 Q 174.597 96.461 176.08 95.471 Q 177.563 94.48 179.8 94.48 Q 181.845 94.48 183.373 95.368 Q 184.901 96.257 185.751 97.912 Q 186.601 99.568 186.588 101.869 L 186.588 114.372 L 181.142 114.372 L 181.142 102.841 Q 181.155 101.025 180.228 100.015 Q 179.301 99.006 177.639 99.006 Q 176.527 99.006 175.677 99.479 Q 174.827 99.952 174.348 100.853 Q 173.868 101.754 173.855 103.02 Z" transform="matrix(3.52372, 0, 0, 3.52372, -461.285095, -248.087875)" style="fill: rgb(255, 255, 255);"></path>
  <path d="M 191.383 114.372 L 191.383 94.736 L 196.663 94.736 L 196.663 98.162 L 196.868 98.162 Q 197.404 96.334 198.67 95.394 Q 199.936 94.454 201.585 94.454 Q 201.994 94.454 202.467 94.506 Q 202.94 94.557 203.298 94.646 L 203.298 99.479 Q 202.914 99.363 202.237 99.274 Q 201.559 99.185 200.997 99.185 Q 199.795 99.185 198.855 99.702 Q 197.916 100.22 197.372 101.14 Q 196.829 102.061 196.829 103.263 L 196.829 114.372 Z" transform="matrix(3.52372, 0, 0, 3.52372, -461.285095, -248.087875)" style="fill: rgb(255, 255, 255);"></path>
  <path d="M 206.597 114.372 L 206.597 94.736 L 212.043 94.736 L 212.043 114.372 Z M 209.333 92.204 Q 208.118 92.204 207.255 91.393 Q 206.392 90.581 206.392 89.443 Q 206.392 88.318 207.255 87.506 Q 208.118 86.694 209.333 86.694 Q 210.547 86.694 211.41 87.506 Q 212.273 88.318 212.273 89.443 Q 212.273 90.581 211.41 91.393 Q 210.547 92.204 209.333 92.204 Z" transform="matrix(3.52372, 0, 0, 3.52372, -461.285095, -248.087875)" style="fill: rgb(255, 255, 255);"></path>
  <path d="M 233.227 100.335 L 228.241 100.642 Q 228.113 100.003 227.691 99.485 Q 227.27 98.967 226.586 98.654 Q 225.902 98.341 224.956 98.341 Q 223.69 98.341 222.821 98.871 Q 221.951 99.402 221.951 100.284 Q 221.951 100.987 222.514 101.473 Q 223.076 101.959 224.444 102.253 L 227.998 102.969 Q 230.862 103.557 232.268 104.861 Q 233.674 106.165 233.674 108.287 Q 233.674 110.217 232.543 111.675 Q 231.412 113.132 229.449 113.944 Q 227.487 114.756 224.93 114.756 Q 221.031 114.756 218.723 113.126 Q 216.416 111.496 216.02 108.683 L 221.376 108.402 Q 221.619 109.591 222.552 110.211 Q 223.485 110.831 224.943 110.831 Q 226.375 110.831 227.25 110.275 Q 228.126 109.719 228.139 108.836 Q 228.126 108.095 227.512 107.616 Q 226.899 107.136 225.62 106.881 L 222.22 106.203 Q 219.343 105.628 217.944 104.209 Q 216.544 102.79 216.544 100.591 Q 216.544 98.699 217.573 97.331 Q 218.602 95.963 220.475 95.221 Q 222.348 94.48 224.866 94.48 Q 228.586 94.48 230.728 96.052 Q 232.869 97.625 233.227 100.335 Z" transform="matrix(3.52372, 0, 0, 3.52372, -461.285095, -248.087875)" style="fill: rgb(255, 255, 255);"></path>
  <path d="M 140.94 153.972 L 140.94 127.79 L 146.475 127.79 L 146.475 149.408 L 157.7 149.408 L 157.7 153.972 Z" transform="matrix(3.52372, 0, 0, 3.52372, -461.285095, -248.087875)" style="fill: rgb(255, 255, 255);"></path>
  <path d="M 167.362 154.343 Q 165.483 154.343 164.012 153.684 Q 162.542 153.026 161.692 151.728 Q 160.842 150.431 160.842 148.488 Q 160.842 146.851 161.443 145.739 Q 162.044 144.627 163.079 143.949 Q 164.115 143.272 165.438 142.927 Q 166.761 142.581 168.218 142.441 Q 169.932 142.262 170.98 142.102 Q 172.028 141.942 172.501 141.623 Q 172.974 141.303 172.974 140.677 L 172.974 140.6 Q 172.974 139.385 172.213 138.721 Q 171.453 138.056 170.059 138.056 Q 168.589 138.056 167.72 138.701 Q 166.851 139.347 166.569 140.319 L 161.532 139.91 Q 161.916 138.12 163.041 136.809 Q 164.166 135.499 165.949 134.789 Q 167.733 134.08 170.085 134.08 Q 171.721 134.08 173.223 134.463 Q 174.726 134.847 175.895 135.652 Q 177.065 136.458 177.743 137.717 Q 178.42 138.976 178.42 140.728 L 178.42 153.972 L 173.255 153.972 L 173.255 151.249 L 173.102 151.249 Q 172.629 152.169 171.836 152.866 Q 171.044 153.563 169.932 153.953 Q 168.819 154.343 167.362 154.343 Z M 168.922 150.584 Q 170.123 150.584 171.044 150.105 Q 171.964 149.625 172.488 148.807 Q 173.012 147.989 173.012 146.954 L 173.012 144.87 Q 172.757 145.036 172.316 145.17 Q 171.875 145.304 171.325 145.413 Q 170.775 145.522 170.226 145.605 Q 169.676 145.688 169.228 145.752 Q 168.27 145.892 167.554 146.199 Q 166.838 146.506 166.441 147.024 Q 166.045 147.542 166.045 148.309 Q 166.045 149.421 166.857 150.003 Q 167.669 150.584 168.922 150.584 Z" transform="matrix(3.52372, 0, 0, 3.52372, -461.285095, -248.087875)" style="fill: rgb(255, 255, 255);"></path>
  <path d="M 188.595 142.62 L 188.595 153.972 L 183.149 153.972 L 183.149 134.336 L 188.339 134.336 L 188.339 137.8 L 188.569 137.8 Q 189.221 136.087 190.755 135.084 Q 192.289 134.08 194.475 134.08 Q 196.521 134.08 198.042 134.975 Q 199.564 135.87 200.407 137.525 Q 201.251 139.181 201.251 141.469 L 201.251 153.972 L 195.805 153.972 L 195.805 142.441 Q 195.818 140.638 194.885 139.622 Q 193.951 138.606 192.315 138.606 Q 191.216 138.606 190.378 139.079 Q 189.541 139.552 189.074 140.453 Q 188.608 141.354 188.595 142.62 Z" transform="matrix(3.52372, 0, 0, 3.52372, -461.285095, -248.087875)" style="fill: rgb(255, 255, 255);"></path>
  <path d="M 214.983 154.356 Q 211.953 154.356 209.773 153.122 Q 207.594 151.888 206.417 149.619 Q 205.241 147.35 205.241 144.243 Q 205.241 141.213 206.417 138.925 Q 207.594 136.637 209.735 135.358 Q 211.876 134.08 214.765 134.08 Q 216.709 134.08 218.39 134.7 Q 220.071 135.32 221.33 136.56 Q 222.589 137.8 223.292 139.673 Q 223.996 141.546 223.996 144.052 L 223.996 145.547 L 207.415 145.547 L 207.415 142.172 L 218.869 142.172 Q 218.869 140.996 218.358 140.088 Q 217.846 139.181 216.945 138.663 Q 216.044 138.145 214.855 138.145 Q 213.615 138.145 212.662 138.714 Q 211.71 139.283 211.173 140.236 Q 210.636 141.188 210.623 142.351 L 210.623 145.56 Q 210.623 147.017 211.167 148.079 Q 211.71 149.14 212.707 149.715 Q 213.704 150.29 215.072 150.29 Q 215.98 150.29 216.734 150.035 Q 217.488 149.779 218.025 149.267 Q 218.562 148.756 218.844 148.015 L 223.88 148.347 Q 223.497 150.162 222.314 151.511 Q 221.132 152.86 219.272 153.608 Q 217.412 154.356 214.983 154.356 Z" transform="matrix(3.52372, 0, 0, 3.52372, -461.285095, -248.087875)" style="fill: rgb(255, 255, 255);"></path>
  <path d="M 151.423 167.39 L 156.894 167.39 L 156.894 185.646 Q 156.894 188.177 155.763 190.044 Q 154.631 191.91 152.624 192.92 Q 150.617 193.93 147.958 193.93 Q 145.593 193.93 143.669 193.093 Q 141.745 192.255 140.62 190.536 Q 139.495 188.816 139.508 186.208 L 145.018 186.208 Q 145.043 187.244 145.446 187.979 Q 145.849 188.714 146.558 189.104 Q 147.268 189.494 148.239 189.494 Q 149.262 189.494 149.972 189.053 Q 150.681 188.612 151.052 187.755 Q 151.423 186.899 151.423 185.646 Z" transform="matrix(3.52372, 0, 0, 3.52372, -461.285095, -248.087875)" style="fill: rgb(255, 255, 255);"></path>
  <path d="M 170.723 193.956 Q 167.745 193.956 165.578 192.684 Q 163.411 191.412 162.235 189.13 Q 161.059 186.848 161.059 183.831 Q 161.059 180.788 162.235 178.506 Q 163.411 176.224 165.578 174.952 Q 167.745 173.68 170.723 173.68 Q 173.702 173.68 175.869 174.952 Q 178.036 176.224 179.212 178.506 Q 180.388 180.788 180.388 183.831 Q 180.388 186.848 179.212 189.13 Q 178.036 191.412 175.869 192.684 Q 173.702 193.956 170.723 193.956 Z M 170.749 189.737 Q 172.104 189.737 173.012 188.963 Q 173.919 188.19 174.386 186.848 Q 174.853 185.505 174.853 183.792 Q 174.853 182.079 174.386 180.737 Q 173.919 179.394 173.012 178.615 Q 172.104 177.835 170.749 177.835 Q 169.381 177.835 168.454 178.615 Q 167.527 179.394 167.061 180.737 Q 166.594 182.079 166.594 183.792 Q 166.594 185.505 167.061 186.848 Q 167.527 188.19 168.454 188.963 Q 169.381 189.737 170.749 189.737 Z" transform="matrix(3.52372, 0, 0, 3.52372, -461.285095, -248.087875)" style="fill: rgb(255, 255, 255);"></path>
  <path d="M 189.885 182.22 L 189.885 193.572 L 184.439 193.572 L 184.439 173.936 L 189.629 173.936 L 189.629 177.4 L 189.86 177.4 Q 190.512 175.687 192.046 174.684 Q 193.58 173.68 195.766 173.68 Q 197.811 173.68 199.333 174.575 Q 200.854 175.47 201.698 177.125 Q 202.541 178.781 202.541 181.069 L 202.541 193.572 L 197.095 193.572 L 197.095 182.041 Q 197.108 180.238 196.175 179.222 Q 195.242 178.206 193.605 178.206 Q 192.506 178.206 191.669 178.679 Q 190.831 179.152 190.365 180.053 Q 189.898 180.954 189.885 182.22 Z" transform="matrix(3.52372, 0, 0, 3.52372, -461.285095, -248.087875)" style="fill: rgb(255, 255, 255);"></path>
  <path d="M 216.273 193.956 Q 213.243 193.956 211.064 192.722 Q 208.884 191.488 207.708 189.219 Q 206.532 186.95 206.532 183.843 Q 206.532 180.813 207.708 178.525 Q 208.884 176.237 211.025 174.958 Q 213.167 173.68 216.056 173.68 Q 217.999 173.68 219.68 174.3 Q 221.361 174.92 222.62 176.16 Q 223.88 177.4 224.583 179.273 Q 225.286 181.146 225.286 183.652 L 225.286 185.147 L 208.705 185.147 L 208.705 181.772 L 220.159 181.772 Q 220.159 180.596 219.648 179.688 Q 219.137 178.781 218.235 178.263 Q 217.334 177.745 216.145 177.745 Q 214.905 177.745 213.953 178.314 Q 213 178.883 212.463 179.836 Q 211.926 180.788 211.914 181.951 L 211.914 185.16 Q 211.914 186.617 212.457 187.679 Q 213 188.74 213.998 189.315 Q 214.995 189.89 216.363 189.89 Q 217.27 189.89 218.025 189.635 Q 218.779 189.379 219.316 188.867 Q 219.853 188.356 220.134 187.615 L 225.171 187.947 Q 224.787 189.762 223.605 191.111 Q 222.422 192.46 220.562 193.208 Q 218.702 193.956 216.273 193.956 Z" transform="matrix(3.52372, 0, 0, 3.52372, -461.285095, -248.087875)" style="fill: rgb(255, 255, 255);"></path>
  <path d="M 245.678 179.535 L 240.692 179.842 Q 240.565 179.203 240.143 178.685 Q 239.721 178.167 239.037 177.854 Q 238.353 177.541 237.407 177.541 Q 236.141 177.541 235.272 178.071 Q 234.403 178.602 234.403 179.484 Q 234.403 180.187 234.965 180.673 Q 235.528 181.159 236.896 181.453 L 240.45 182.169 Q 243.313 182.757 244.719 184.061 Q 246.126 185.365 246.126 187.487 Q 246.126 189.417 244.994 190.875 Q 243.863 192.332 241.901 193.144 Q 239.938 193.956 237.381 193.956 Q 233.482 193.956 231.175 192.326 Q 228.867 190.696 228.471 187.883 L 233.827 187.602 Q 234.07 188.791 235.004 189.411 Q 235.937 190.031 237.394 190.031 Q 238.826 190.031 239.702 189.475 Q 240.577 188.919 240.59 188.037 Q 240.577 187.295 239.964 186.816 Q 239.35 186.336 238.072 186.081 L 234.671 185.403 Q 231.795 184.828 230.395 183.409 Q 228.995 181.99 228.995 179.791 Q 228.995 177.899 230.024 176.531 Q 231.053 175.163 232.926 174.421 Q 234.799 173.68 237.317 173.68 Q 241.038 173.68 243.179 175.252 Q 245.32 176.825 245.678 179.535 Z" transform="matrix(3.52372, 0, 0, 3.52372, -461.285095, -248.087875)" style="fill: rgb(255, 255, 255);"></path>
</svg>