<?xml version="1.0" encoding="iso-8859-1"?>
<!-- Uploaded to: SVG Repo, www.svgrepo.com, Generator: SVG Repo Mixer Tools -->
<svg fill="#ffffff" height="800px" width="800px" version="1.1" id="Layer_1" xmlns="http://www.w3.org/2000/svg" xmlns:xlink="http://www.w3.org/1999/xlink" 
	 viewBox="0 0 512.559 512.559" xml:space="preserve">
<g transform="translate(1 1)">
	<g>
		<g>
			<path d="M510.573,354.373l-42.667-85.333c-1.648-2.884-4.688-4.361-7.68-4.461v-17.726h8.533c3.413,0,5.973-1.707,6.827-4.267
				c1.707-2.56,1.707-5.973,0-8.533l-66.56-116.48V99.226l53.76-15.36c3.413-0.853,5.973-3.413,5.973-6.827
				s-1.707-6.827-4.267-8.533L404.76,34.373c-2.56-1.707-5.973-1.707-8.533,0c-0.219,0.146-0.422,0.306-0.628,0.465
				c-1.978,1.252-3.253,3.335-3.559,5.968c-0.001,0.005-0.001,0.01-0.002,0.015c-0.046,0.4-0.078,0.808-0.078,1.232v51.2v22.827
				l-50.834,88.96h-43.032V101.786c2.56,0,5.973-1.707,7.68-4.267c0.853-2.56,1.707-5.973,0-8.533L263.107,3.653
				c-3.413-5.973-12.8-5.973-15.36,0L205.08,88.986c-1.707,2.56-1.707,5.973,0,8.533s5.12,4.267,7.68,4.267v103.253h-43.886
				l-49.981-87.467v-24.32v-51.2c0-0.424-0.032-0.832-0.078-1.232c-0.001-0.005-0.001-0.01-0.002-0.015
				c-0.306-2.632-1.581-4.716-3.559-5.968c-0.206-0.158-0.409-0.319-0.628-0.465c-2.56-1.707-5.973-1.707-8.533,0L46.36,68.506
				c-3.413,1.707-5.12,5.12-4.267,8.533s2.56,6.827,5.973,7.68l53.76,15.36v16L34.413,234.053c-1.707,2.56-1.707,5.973,0,8.533
				s4.267,4.267,7.68,4.267h8.533v16.853c-3.2,0-6.4,1.493-7.68,4.48L0.28,353.519c-1.707,2.56-1.707,5.973,0,8.533
				s5.12,4.267,7.68,4.267v136.533c0,5.12,3.413,8.533,8.533,8.533H59.16h102.4h42.667h34.133h34.133h34.133h42.667h102.4h42.667
				c5.12,0,8.533-3.413,8.533-8.533V366.319c2.56,0,6.827-0.853,7.68-3.413S512.28,356.933,510.573,354.373z M255.427,26.693
				l29.013,58.027h-58.027L255.427,26.693z M281.027,101.786v102.4h-51.2v-102.4H281.027z M489.24,349.253h-29.013v-58.027
				L489.24,349.253z M451.693,229.786h-102.4h-0.853l8.533-11.947c1.417-2.126,1.639-4.834,0.703-7.16l42.817-74.76l53.76,93.867
				H451.693z M409.027,82.159v-25.6l29.013,17.067L409.027,82.159z M72.813,73.626l29.013-17.067v25.6L72.813,73.626z
				 M110.36,135.919l42.817,74.76c-0.937,2.325-0.715,5.034,0.703,7.16l8.533,11.947h-0.853H59.16H56.6L110.36,135.919z
				 M50.627,291.226v58.027H21.613L50.627,291.226z M25.027,366.319h25.6v128h-25.6V366.319z M67.693,357.786v-68.267v-42.667
				h85.333v247.467H67.693V357.786z M170.093,246.853h8.533c3.413,0,5.973-1.707,7.68-4.267s1.707-5.973,0-8.533l-4.267-5.973
				l-3.413-5.973h152.747l-6.827,11.947c-1.707,2.56-1.707,5.973,0,8.533s4.267,4.267,7.68,4.267h8.533v247.467h-25.6v-128
				c3.413,0,5.973-1.707,7.68-4.267c0.853-2.56,0.853-5.973-0.853-8.533l-59.733-85.333c-2.56-4.267-10.24-4.267-13.653,0
				l-59.733,85.333c-1.707,2.56-2.56,5.973-0.853,8.533s4.267,4.267,7.68,4.267v128h-25.6V246.853z M298.947,349.253h-87.04
				l43.52-62.293L298.947,349.253z M246.893,494.319v-68.267h17.067v68.267H246.893z M281.027,494.319v-76.8
				c0-5.12-3.413-8.533-8.533-8.533H238.36c-5.12,0-8.533,3.413-8.533,8.533v76.8H212.76v-128h85.333v128H281.027z M357.827,246.853
				h85.333v42.667v68.267v136.533h-85.333V246.853z M485.827,494.319h-25.6v-128h25.6V494.319z"/>
			<path d="M110.36,263.919c-5.12,0-8.533,3.413-8.533,8.533v51.2c0,5.12,3.413,8.533,8.533,8.533s8.533-3.413,8.533-8.533v-51.2
				C118.893,267.333,115.48,263.919,110.36,263.919z"/>
			<path d="M110.36,408.986c-5.12,0-8.533,3.413-8.533,8.533v51.2c0,5.12,3.413,8.533,8.533,8.533s8.533-3.413,8.533-8.533v-51.2
				C118.893,412.399,115.48,408.986,110.36,408.986z"/>
			<path d="M110.36,349.253c-5.12,0-8.533,3.413-8.533,8.533v25.6c0,5.12,3.413,8.533,8.533,8.533s8.533-3.413,8.533-8.533v-25.6
				C118.893,352.666,115.48,349.253,110.36,349.253z"/>
			<path d="M400.493,263.919c-5.12,0-8.533,3.413-8.533,8.533v51.2c0,5.12,3.413,8.533,8.533,8.533c5.12,0,8.533-3.413,8.533-8.533
				v-51.2C409.027,267.333,405.613,263.919,400.493,263.919z"/>
			<path d="M400.493,408.986c-5.12,0-8.533,3.413-8.533,8.533v51.2c0,5.12,3.413,8.533,8.533,8.533c5.12,0,8.533-3.413,8.533-8.533
				v-51.2C409.027,412.399,405.613,408.986,400.493,408.986z"/>
			<path d="M400.493,349.253c-5.12,0-8.533,3.413-8.533,8.533v25.6c0,5.12,3.413,8.533,8.533,8.533c5.12,0,8.533-3.413,8.533-8.533
				v-25.6C409.027,352.666,405.613,349.253,400.493,349.253z"/>
			<path d="M204.227,298.053c5.12,0,8.533-3.413,8.533-8.533v-34.133c0-5.12-3.413-8.533-8.533-8.533
				c-5.12,0-8.533,3.413-8.533,8.533v34.133C195.693,294.639,199.107,298.053,204.227,298.053z"/>
			<path d="M306.627,298.053c5.12,0,8.533-3.413,8.533-8.533v-34.133c0-5.12-3.413-8.533-8.533-8.533s-8.533,3.413-8.533,8.533
				v34.133C298.093,294.639,301.507,298.053,306.627,298.053z"/>
			<path d="M255.427,178.586c5.12,0,8.533-3.413,8.533-8.533v-34.133c0-5.12-3.413-8.533-8.533-8.533s-8.533,3.413-8.533,8.533
				v34.133C246.893,175.173,250.307,178.586,255.427,178.586z"/>
		</g>
	</g>
</g>
</svg>